<?xml version="1.0" encoding="UTF-8" standalone="no"?>
<svg width="477px" height="537px" viewBox="0 0 477 537" version="1.1" xmlns="http://www.w3.org/2000/svg" xmlns:xlink="http://www.w3.org/1999/xlink" xmlns:sketch="http://www.bohemiancoding.com/sketch/ns">
    <!-- Generator: Sketch 3.2.2 (9983) - http://www.bohemiancoding.com/sketch -->
    <title>Slice 1</title>
    <desc>Created with Sketch.</desc>
    <defs></defs>
    <g id="Page-1" stroke="none" stroke-width="1" fill="none" fill-rule="evenodd" sketch:type="MSPage">
        <g id="stefanmve" sketch:type="MSLayerGroup" fill="#006B8F">
            <g id="Page-1" sketch:type="MSShapeGroup">
                <g id="logo2">
                    <path d="M0,370 C0,370 9.99590137e-08,536.21967 0,536.21967 C-1.20236099e-07,536.21967 43.2946087,536.21967 43.2946087,536.21967 C43.2946087,536.21967 44.2347165,471.89373 43.2946087,471.893735 C42.3545035,471.893741 71.9130435,536.219677 71.9130435,536.219677 C71.9130435,536.219677 100.527297,471.893731 100.527301,471.893735 C100.527306,471.89374 100.527301,536.21967 100.527301,536.21967 L143.821915,536.21967 L143.821913,370 L100.527304,370 L71.9109565,449.908623 L43.2946087,370 L0,370 L0,370 Z" id="Shape-2" fill-opacity="0.325435915"></path>
                    <path d="M166,370 L237.913043,536.219677 L309.821913,370 L266.527304,370 L237.910957,449.908623 L209.294609,370 L166,370 L166,370 Z" id="Shape-2"></path>
                    <path d="M476.097171,474.331 L476.097171,431.83 L396.842146,431.83 L396.842146,412.502 L476.096,412.502 L476.096,370 L332,370 L332,412.502 L332,431.83 L332,474.331 L332,493.659 L332,536.161 L396.842146,536.161 L476.097171,536.161 L476.097171,493.659 L396.842146,493.659 L396.842146,474.331 L476.097171,474.331 L476.097171,474.331 Z" id="Shape-3" fill-opacity="0.325435915"></path>
                    <path d="M310.139663,0 L262.093108,0 L214.046554,0 L166,0 L166,42.501 L214.046554,42.501 L214.046554,166.16 L262.093108,166.16 L262.093108,42.501 L310.139663,42.501 L310.139663,0 L310.139663,0 Z" id="Shape" fill-opacity="0.325435915"></path>
                    <path d="M143.76,42.502 L143.76,2.84217094e-14 L55.387,2.84217094e-14 L0,2.84217094e-14 L0,42.502 L0,61.83 L0,104.331 L55.387,104.331 L88.373,104.331 L88.373,123.659 L0,123.659 L0,166.161 L88.373,166.161 L143.76,166.161 L143.76,123.659 L143.76,104.331 L143.76,61.83 L88.373,61.83 L55.387,61.83 L55.387,42.502 L143.76,42.502 L143.76,42.502 Z" id="Shape" fill-opacity="0.325435915"></path>
                    <path d="M144.097171,227.502 L144.097171,185 L0,185 L0,227.502 L0.00117073171,227.502 L0.00117073171,246.83 L0.00117073171,289.331 L0.00117073171,351.161 L64.8444878,351.161 L64.8444878,289.331 L144.097171,289.331 L144.097171,246.83 L64.8444878,246.83 L64.8444878,227.502 L144.097171,227.502 L144.097171,227.502 Z" id="Shape" fill-opacity="0.325435915"></path>
                    <path d="M166,184.780323 L237.913043,351 L309.821913,184.780323 L266.527304,184.780323 L237.910957,264.688946 L209.294609,184.780323 L166,184.780323 L166,184.780323 Z" id="Shape-3" transform="translate(237.910956, 267.890161) scale(1, -1) translate(-237.910956, -267.890161) "></path>
                    <path d="M476.097171,104.331 L476.097171,61.83 L396.842146,61.83 L396.842146,42.502 L476.096,42.502 L476.096,2.84217094e-14 L332,2.84217094e-14 L332,42.502 L332,61.83 L332,104.331 L332,123.659 L332,166.161 L396.842146,166.161 L476.097171,166.161 L476.097171,123.659 L396.842146,123.659 L396.842146,104.331 L476.097171,104.331 L476.097171,104.331 Z" id="Shape" fill-opacity="0.325435915"></path>
                    <path d="M475.828426,288.996951 L475.83966,282.893889 L475.828426,282.885691 L475.828426,185 L432.422128,185 L432.422128,253.344864 L332,185 L332,253.579519 L332,351.43242 L375.406298,351.43242 L375.406298,283.120346 L432.420085,321.922333 L475.708936,351.384259 L475.708936,351.351469 L475.828426,351.43242 L475.828426,288.996951 L475.828426,288.996951 Z" id="Shape" fill-opacity="0.325435915"></path>
                </g>
            </g>
        </g>
    </g>
</svg>